<?xml version="1.0" standalone="no"?>
<!DOCTYPE svg PUBLIC "-//W3C//DTD SVG 20010904//EN"
 "http://www.w3.org/TR/2001/REC-SVG-20010904/DTD/svg10.dtd">
<svg version="1.0" xmlns="http://www.w3.org/2000/svg"
 width="875.000000pt" height="62.000000pt" viewBox="0 0 875.000000 62.000000"
 preserveAspectRatio="xMidYMid meet">

<g transform="translate(0.000000,62.000000) scale(0.100000,-0.100000)"
fill="#000000" stroke="none">
<path d="M120 478 c-35 -19 -52 -56 -46 -102 7 -58 31 -76 115 -87 91 -11 133
-30 252 -111 137 -93 188 -111 324 -112 78 -1 126 4 165 16 53 17 79 32 238
141 87 60 165 77 269 60 57 -10 81 -22 183 -91 65 -44 144 -90 176 -102 81
-30 209 -37 297 -16 84 20 122 39 217 110 102 76 146 96 227 103 100 8 160
-13 292 -101 60 -41 136 -84 168 -96 80 -30 208 -37 296 -16 84 20 122 39 217
110 102 76 146 96 227 103 100 8 160 -13 292 -101 153 -103 198 -119 336 -120
78 -1 126 4 165 16 53 17 79 32 238 141 87 60 165 77 269 60 57 -10 81 -22
183 -91 65 -44 144 -90 176 -102 81 -30 209 -37 297 -16 84 20 122 39 217 110
102 76 146 96 227 103 100 8 160 -13 292 -101 153 -103 198 -119 336 -120 78
-1 126 4 165 16 53 17 79 32 238 141 87 60 165 77 269 60 57 -10 81 -22 183
-91 65 -44 144 -90 176 -102 81 -30 209 -37 297 -16 84 20 122 39 217 110 101
75 141 93 233 105 88 10 113 26 123 78 8 45 -12 90 -49 110 -38 19 -135 13
-216 -13 -52 -17 -73 -30 -229 -137 -87 -60 -165 -77 -269 -60 -57 10 -81 22
-183 91 -138 93 -204 121 -311 129 -142 11 -249 -23 -379 -121 -102 -76 -146
-96 -227 -103 -100 -8 -160 13 -292 101 -153 103 -198 119 -336 120 -83 1
-124 -4 -169 -18 -56 -19 -77 -32 -234 -139 -87 -60 -165 -77 -269 -60 -57 10
-81 22 -183 91 -138 93 -204 121 -311 129 -142 11 -249 -23 -379 -121 -102
-76 -146 -96 -227 -103 -100 -8 -160 13 -292 101 -130 88 -197 115 -302 123
-142 11 -249 -23 -379 -121 -102 -76 -146 -96 -227 -103 -100 -8 -160 13 -292
101 -153 103 -198 119 -336 120 -83 1 -124 -4 -169 -18 -56 -19 -77 -32 -234
-139 -87 -60 -165 -77 -269 -60 -57 10 -81 22 -183 91 -138 93 -204 121 -311
129 -142 11 -249 -23 -379 -121 -102 -76 -146 -96 -227 -103 -100 -8 -160 13
-292 101 -60 41 -135 84 -166 95 -73 27 -191 37 -225 19z"/>
</g>
</svg>
